<svg id="Layer_1" data-name="Layer 1" xmlns="http://www.w3.org/2000/svg" viewBox="0 0 600 600"><defs><style>.cls-1{fill:#bad1da;}.cls-2{fill:#094871;}.cls-3{fill:#86b9e2;}.cls-4{fill:#fff;}</style></defs><title>icon</title><g id="Group_4234" data-name="Group 4234"><rect id="Rectangle_6033" data-name="Rectangle 6033" class="cls-1" x="9.46" y="520.16" width="581.08" height="70.37"/><path id="Path_4161" data-name="Path 4161" class="cls-2" d="M590.37,600H9.46A8.9,8.9,0,0,1,0,591.66a7.75,7.75,0,0,1,0-1.18V520.11a8.9,8.9,0,0,1,8.31-9.45,10.65,10.65,0,0,1,1.13,0H590.54A8.9,8.9,0,0,1,600,519a7,7,0,0,1,0,1.12v70.37A9.83,9.83,0,0,1,590.37,600ZM18.73,581.25h562.2V529.61H18.73Z"/><rect id="Rectangle_6034" data-name="Rectangle 6034" class="cls-3" x="27.38" y="130.53" width="545.08" height="389.48"/><path id="Path_4162" data-name="Path 4162" class="cls-2" d="M572.46,529.61H27.38A9.21,9.21,0,0,1,17.61,521a7.62,7.62,0,0,1,0-1.17V130.53a9.21,9.21,0,0,1,8.6-9.78,7.62,7.62,0,0,1,1.17,0H572.46a9.21,9.21,0,0,1,9.77,8.61,11.41,11.41,0,0,1,0,1.17V520A10.64,10.64,0,0,1,572.46,529.61ZM37.15,510.23H562.69V140.13H37.15Z"/><rect id="Rectangle_6035" data-name="Rectangle 6035" class="cls-4" x="65.72" y="169.85" width="467.46" height="311.76"/></g><path class="cls-2" d="M594.64,0H136.28A5.26,5.26,0,0,0,131,5.26V287.08a5.26,5.26,0,0,0,5.26,5.27H277.54v77a11,11,0,0,0,11,11,10.53,10.53,0,0,0,6.51-2.2l114.38-85.83H594.64a5.27,5.27,0,0,0,5.26-5.27V5.26A5.27,5.27,0,0,0,594.64,0ZM579.09,18.9V271.53H398.33l-96.68,73.68V271.53H151.83V18.9Z"/><polygon class="cls-4" points="579.09 18.9 579.09 271.53 398.32 271.53 301.65 345.21 301.65 271.53 151.83 271.53 151.83 18.9 579.09 18.9"/><g id="Group_3825" data-name="Group 3825"><path id="Path_4167" data-name="Path 4167" class="cls-3" d="M469.52,86.19H261.41c-8.92.38-16.62-4.18-17.18-10.2a8,8,0,0,1,0-1.38c-.66-6,6-11.14,14.79-11.59a23.82,23.82,0,0,1,2.39,0H469.52c8.92-.38,16.62,4.19,17.18,10.2a6.46,6.46,0,0,1,0,1.39c.46,6.08-6.48,11.27-15.51,11.58C470.63,86.21,470.07,86.21,469.52,86.19Z"/><path id="Path_4168" data-name="Path 4168" class="cls-3" d="M469.52,149.48H261.41c-8.92.38-16.62-4.19-17.18-10.21a8,8,0,0,1,0-1.38c-.66-5.95,6-11.14,14.79-11.58a19.06,19.06,0,0,1,2.39,0H469.52c8.92-.39,16.62,4.18,17.18,10.2a6.37,6.37,0,0,1,0,1.38C486.52,144.24,478.93,149.35,469.52,149.48Z"/><g id="Group_3825-2" data-name="Group 3825"><path id="Path_4167-2" data-name="Path 4167" class="cls-3" d="M469.52,209.71H261.41c-8.92.39-16.62-4.18-17.18-10.2a8,8,0,0,1,0-1.38c-.66-5.95,6-11.14,14.79-11.59a23.82,23.82,0,0,1,2.39,0H469.52c8.92-.38,16.62,4.19,17.18,10.21a6.37,6.37,0,0,1,0,1.38c.46,6.09-6.48,11.27-15.51,11.58C470.63,209.73,470.07,209.73,469.52,209.71Z"/></g></g></svg>