<svg id="Layer_1" data-name="Layer 1" xmlns="http://www.w3.org/2000/svg" viewBox="0 0 600 600"><defs><style>.cls-1{fill:#bad1da;}.cls-2{fill:#094871;}.cls-3{fill:#86b9e2;}.cls-4{fill:#fff;}</style></defs><title>icon</title><rect class="cls-1" x="23.66" y="19.61" width="552.68" height="58.52"/><path class="cls-2" d="M0,6.71V593.29A6.71,6.71,0,0,0,6.71,600H593.29a6.71,6.71,0,0,0,6.71-6.71V6.71A6.71,6.71,0,0,0,593.29,0H6.71A6.71,6.71,0,0,0,0,6.71Zm576.34,12.9V78.13H23.66V19.61ZM23.85,579.51V98.43h552.3V579.51Z"/><rect class="cls-2" x="534.2" y="38.32" width="21.1" height="21.1"/><rect class="cls-2" x="497.04" y="38.32" width="21.1" height="21.1"/><rect class="cls-3" x="23.66" y="98.29" width="552.68" height="481.22"/><rect class="cls-4" x="49.87" y="120.85" width="500.26" height="436.11"/><path class="cls-2" d="M151.47,326l81.88-71.18a11.15,11.15,0,0,0,3.84-8.42h0a11.16,11.16,0,0,0-18.48-8.42l-95.82,83.3a6.26,6.26,0,0,0,0,9.45L218.71,414a11.16,11.16,0,0,0,18.48-8.42h0a11.15,11.15,0,0,0-3.84-8.42Z"/><path class="cls-2" d="M448.53,326l-81.88-71.18a11.15,11.15,0,0,1-3.84-8.42h0a11.16,11.16,0,0,1,18.48-8.42l95.82,83.3a6.26,6.26,0,0,1,0,9.45L381.29,414a11.16,11.16,0,0,1-18.48-8.42h0a11.15,11.15,0,0,1,3.84-8.42Z"/><path id="Path_4169" data-name="Path 4169" class="cls-2" d="M331.79,211.38,290.72,444.29a10.16,10.16,0,0,1-11.22,9,11.29,11.29,0,0,1-1.27-.23,10.06,10.06,0,0,1-9-11,10.52,10.52,0,0,1,.26-1.47l41.07-232.91a10.16,10.16,0,0,1,11.22-9,11.29,11.29,0,0,1,1.27.23,10.72,10.72,0,0,1,8.76,12.36S331.8,211.34,331.79,211.38Z"/></svg>