<svg xmlns="http://www.w3.org/2000/svg" xmlns:xlink="http://www.w3.org/1999/xlink" viewBox="0 0 1920 1080"><defs><style>.cls-1{fill:none;}.cls-2{isolation:isolate;}.cls-3{fill:#5bacd8;}.cls-4{clip-path:url(#clip-path);}.cls-5{opacity:0.11;mix-blend-mode:overlay;}.cls-6{fill:#fff;}</style><clipPath id="clip-path"><path class="cls-1" d="M1920,0V524.46s-34.61,69.76-109.64,58.23-121.15-15.37-190.42,31.87-138,29.1-178.74-29.75c-41-59.27-128-86.15-230.09,25-39.17,42.64-85.44,61.71-132.27,66.24h-47c-59.07-5.33-115.5-29.25-155.85-53.25-120.5-71.66-203.58-70.55-300.21-14-171.56,100.35-224.56-25.45-260.94-72.31-47.58-61.31-124.5-87.29-173.69-69.79C33.65,504.88,0,394.9,0,369.35V0Z"/></clipPath></defs><title>bg head</title><g class="cls-2"><g id="Layer_1" data-name="Layer 1"><path class="cls-3" d="M1920,0V524.46s-34.61,69.76-109.64,58.23-121.15-15.37-190.42,31.87-138,29.1-178.74-29.75c-41-59.27-128-86.15-230.09,25-39.17,42.64-85.44,61.71-132.27,66.24h-47c-59.07-5.33-115.5-29.25-155.85-53.25-120.5-71.66-203.58-70.55-300.21-14-171.56,100.35-224.56-25.45-260.94-72.31-47.58-61.31-124.5-87.29-173.69-69.79C33.65,504.88,0,394.9,0,369.35V0Z"/><g class="cls-4"><g class="cls-5"><polygon class="cls-6" points="1738.98 933.79 1918.84 830.03 1919.39 830.99 1741.2 933.79 1738.98 933.79"/><rect class="cls-6" x="1758.75" y="762.17" width="171.86" height="1.11" transform="translate(-134.31 1023.85) rotate(-29.98)"/><polygon class="cls-6" points="1547.04 933.79 1603.26 901.36 1603.81 902.32 1549.27 933.79 1547.04 933.79"/><rect class="cls-6" x="1551.75" y="706.87" width="393.71" height="1.11" transform="translate(-119.53 968.44) rotate(-29.98)"/><polygon class="cls-6" points="1163.18 933.79 1711.53 617.45 1712.08 618.41 1165.4 933.79 1163.18 933.79"/><rect class="cls-6" x="1323.85" y="546.25" width="638.59" height="1.11" transform="translate(-53.38 894.26) rotate(-29.98)"/><polygon class="cls-6" points="971.24 933.79 1077.64 872.41 1078.2 873.37 973.47 933.79 971.24 933.79"/><rect class="cls-6" x="1418.01" y="410.31" width="537.68" height="1.11" transform="translate(20.39 897.91) rotate(-29.98)"/><polygon class="cls-6" points="779.31 933.79 1211.04 684.72 1211.6 685.69 781.53 933.79 779.31 933.79"/><rect class="cls-6" x="1623.82" y="230.87" width="316.46" height="1.11" transform="translate(122.8 921.47) rotate(-29.98)"/><rect class="cls-6" x="917.32" y="567.56" width="560.58" height="1.11" transform="translate(-123.64 674.47) rotate(-29.98)"/><rect class="cls-6" x="1425.23" y="217.09" width="377.56" height="1.11" transform="translate(107.2 835.65) rotate(-29.98)"/><rect class="cls-6" x="513.59" y="661.76" width="659.25" height="1.11" transform="translate(-218.14 509.98) rotate(-29.98)"/><polygon class="cls-6" points="1800.29 0.1 1519.78 161.92 1519.23 160.96 1798.06 0.1 1800.29 0.1"/><rect class="cls-6" x="112.96" y="628.93" width="1190.47" height="1.11" transform="translate(-219.8 438.12) rotate(-29.98)"/><rect class="cls-6" x="919.96" y="184.72" width="732.59" height="1.11" transform="translate(79.52 667.54) rotate(-29.98)"/><polygon class="cls-6" points="0 926.67 719.2 511.77 719.75 512.73 0 927.96 0 926.67"/><rect class="cls-6" x="236.03" y="372.38" width="1066" height="1.11" transform="translate(-83.46 434.19) rotate(-29.98)"/><polygon class="cls-6" points="0 815.95 147.72 730.73 148.27 731.69 0 817.23 0 815.95"/><polygon class="cls-6" points="1224.49 0.1 685.16 311.24 684.61 310.27 1222.26 0.1 1224.49 0.1"/><polygon class="cls-6" points="0 705.22 92.03 652.13 92.58 653.09 0 706.5 0 705.22"/><polygon class="cls-6" points="1032.55 0.1 642.41 225.17 641.86 224.21 1030.33 0.1 1032.55 0.1"/><polygon class="cls-6" points="0 594.5 480.04 317.56 480.6 318.52 0 595.78 0 594.5"/><polygon class="cls-6" points="840.62 0.1 396.2 256.49 395.64 255.52 838.39 0.1 840.62 0.1"/><polygon class="cls-6" points="0 483.77 279.05 322.78 279.61 323.75 0 485.05 0 483.77"/><rect class="cls-6" x="37.76" y="178.01" width="546.13" height="1.11" transform="matrix(0.87, -0.5, 0.5, 0.87, -47.64, 179.21)"/><polygon class="cls-6" points="0 246.51 307.81 68.94 308.37 69.9 0 247.8 0 246.51"/><polygon class="cls-6" points="237.43 0.1 192.88 25.8 192.33 24.83 235.2 0.1 237.43 0.1"/><polygon class="cls-6" points="45.49 0.1 0 26.34 0 25.06 43.27 0.1 45.49 0.1"/></g></g></g></g></svg>