<svg id="Layer_1" data-name="Layer 1" xmlns="http://www.w3.org/2000/svg" viewBox="0 0 600 600"><defs><style>.cls-1{fill:#fff;}.cls-2{fill:#094871;}.cls-3{fill:#bad1da;}.cls-4{fill:#86b9e2;}</style></defs><title>icon</title><g id="Group_4235" data-name="Group 4235"><path id="Path_4170" data-name="Path 4170" class="cls-1" d="M492,549.38H107.81L135,590.61H464.84Z"/><path id="Path_4171" data-name="Path 4171" class="cls-2" d="M464.84,600H135a8.37,8.37,0,0,1-7.55-4.69l-27.15-41.23a8.68,8.68,0,0,1,0-9.39,9.68,9.68,0,0,1,8.37-4.69H492.81a9.69,9.69,0,0,1,8.37,4.69,8.68,8.68,0,0,1,0,9.39L474,595.31A12,12,0,0,1,464.84,600ZM139.66,581.22H460.14L475,558.76H125.56Z"/><path id="Path_4172" data-name="Path 4172" class="cls-1" d="M184.56,549.37H415.24l-50.62-60.83H235.18Z"/><path id="Path_4173" data-name="Path 4173" class="cls-2" d="M415.24,558.77H184.56a8.93,8.93,0,0,1-8.38-5.71,10,10,0,0,1,1-10.41l50.63-80.47a11.62,11.62,0,0,1,7.55-3.67H364.81a8.83,8.83,0,0,1,7.56,3.67L423,542.65a10.39,10.39,0,0,1,1,10.41A8.83,8.83,0,0,1,415.24,558.77ZM204.36,540H395.68l-35.52-61.9H240.09Z"/><path id="Path_4174" data-name="Path 4174" class="cls-1" d="M590.38,56.14A46.44,46.44,0,0,0,544.45,9.19H56.16A46.44,46.44,0,0,0,9.21,55.11V345.79H590.38Z"/><path id="Path_4175" data-name="Path 4175" class="cls-2" d="M590.39,400.81H9.42A8.8,8.8,0,0,1,0,392.66a8.55,8.55,0,0,1,0-1.24V56.07A56.37,56.37,0,0,1,56.1,0H543.44a56.22,56.22,0,0,1,56.08,56.07V391.42a9.05,9.05,0,0,1-8.7,9.39ZM18.81,382.08H581.19v-326a37.72,37.72,0,0,0-37.56-37.55H56.1A37.72,37.72,0,0,0,18.6,56.07Z"/><path id="Path_4176" data-name="Path 4176" class="cls-3" d="M47,335.5V57.85c-.34-5.73,3.31-10.69,8.16-11.1a8.55,8.55,0,0,1,1.24,0H543.65c4.84-.41,9.05,3.91,9.39,9.63a12,12,0,0,1,0,1.47V335.5Z"/><path id="Path_4177" data-name="Path 4177" class="cls-1" d="M9.42,391.46v30a46.44,46.44,0,0,0,45.92,46.95H543.65a46.45,46.45,0,0,0,47-45.93v-31Z"/><path id="Path_4178" data-name="Path 4178" class="cls-2" d="M543.65,477.8H56.1A56.41,56.41,0,0,1,0,421.46v-30a8.8,8.8,0,0,1,8.15-9.39,8.69,8.69,0,0,1,1.25,0H590.59A8.8,8.8,0,0,1,600,390.2a8.55,8.55,0,0,1,0,1.24v30A56.71,56.71,0,0,1,543.65,477.8ZM18.81,400.85v20.62A37.73,37.73,0,0,0,56.37,459H543.65a37.73,37.73,0,0,0,37.55-37.56V400.85Z"/><rect id="Rectangle_6039" data-name="Rectangle 6039" class="cls-4" x="353.39" y="421.47" width="18.79" height="18.78"/><rect id="Rectangle_6040" data-name="Rectangle 6040" class="cls-4" x="290.51" y="421.47" width="18.79" height="18.78"/><rect id="Rectangle_6041" data-name="Rectangle 6041" class="cls-4" x="227.84" y="421.47" width="18.79" height="18.78"/><rect class="cls-4" x="46.95" y="360.26" width="506.11" height="5.85"/><rect class="cls-4" x="98.91" y="354.29" width="17.79" height="17.79" rx="1"/><path id="Path_4187" data-name="Path 4187" class="cls-2" d="M239.11,115V272.31L360.89,192Z"/></g></svg>