<svg id="Layer_1" data-name="Layer 1" xmlns="http://www.w3.org/2000/svg" viewBox="0 0 600 600"><defs><style>.cls-1{fill:#bad1da;}.cls-2{fill:#094871;}.cls-3{fill:#86b9e2;}.cls-4{fill:#fff;}</style></defs><title>icon</title><rect class="cls-1" x="23.66" y="20.16" width="552.68" height="58.53"/><path class="cls-2" d="M0,0V511.29H600V0ZM576.34,20.16V78.69H23.66V20.16Zm-552.68,471V98.86H576.34V491.13Z"/><rect class="cls-2" x="534.2" y="38.88" width="21.1" height="21.1"/><rect class="cls-2" x="497.04" y="38.88" width="21.1" height="21.1"/><rect class="cls-3" x="23.66" y="98.86" width="552.68" height="392.28"/><rect class="cls-4" x="49.87" y="121.42" width="500.26" height="347.15"/><polygon class="cls-2" points="222.48 213.65 222.48 261.13 127.17 261.13 127.17 165.8 174.65 165.8 174.65 147.85 109.22 147.85 109.22 279.08 240.43 279.08 240.43 213.65 222.48 213.65"/><path class="cls-2" d="M109.22,310.91V442.13H240.43V310.91ZM222.48,424.18H127.17V328.86h95.31Z"/><polygon class="cls-2" points="227.74 161.19 175.88 213.06 153.97 191.14 141.28 203.83 175.88 238.44 240.43 173.89 227.74 161.19"/><rect class="cls-2" x="288.29" y="177.36" width="202.49" height="17.95"/><rect class="cls-2" x="288.29" y="225.86" width="92.66" height="17.95"/><path class="cls-2" d="M428.75,239.74a34.21,34.21,0,0,0-34,34V407.83L387.27,400l-2.84-2.48a33.6,33.6,0,0,0-47.51,47.52v.35l92.9,91.85.7.35.36.72a94.3,94.3,0,0,0,56.73,19.14H507.1a92.71,92.71,0,0,0,92.9-92.9V375.91a34.21,34.21,0,0,0-34-34,33,33,0,0,0-13.48,3.18,34.26,34.26,0,0,0-33-25.88A33.9,33.9,0,0,0,496.82,328a33.88,33.88,0,0,0-22.69-8.86,33.28,33.28,0,0,0-11.34,2.13V273.78a34.21,34.21,0,0,0-34-34Zm0,22.69a11.31,11.31,0,0,1,11.35,11.35V398.6h22.69V353.21a11.35,11.35,0,0,1,22.69,0V398.6h22.69V353.21a11.35,11.35,0,0,1,22.69,0V398.6h23.76V375.91a11.35,11.35,0,1,1,22.69,0v88.66c0,39.3-30.9,70.2-70.21,70.2H487.61c-16.62,0-31-5.93-42.91-14.88l-91.82-90.78c-5.06-5.07-5.06-10.56,0-15.61s10.54-5.06,15.6,0l48.92,48.93V273.78a11.31,11.31,0,0,1,11.35-11.35Zm0,0"/><path class="cls-4" d="M428.75,262.43a11.31,11.31,0,0,1,11.35,11.35V398.6h22.69V353.21a11.35,11.35,0,0,1,22.69,0V398.6h22.69V353.21a11.35,11.35,0,0,1,22.69,0V398.6h23.76V375.91a11.35,11.35,0,1,1,22.69,0v88.66c0,39.3-30.9,70.2-70.21,70.2H487.61c-16.62,0-31-5.93-42.91-14.88l-91.82-90.78c-5.06-5.07-5.06-10.56,0-15.61s10.54-5.06,15.6,0l48.92,48.93V273.78a11.31,11.31,0,0,1,11.35-11.35Z"/><path class="cls-2" d="M409.19,527v73h185.7V527Zm167,55.77H427.93V544.24H576.15Z"/><rect class="cls-3" x="427.93" y="544.24" width="148.22" height="38.55"/></svg>