<svg xmlns="http://www.w3.org/2000/svg" xmlns:xlink="http://www.w3.org/1999/xlink" viewBox="0 0 643.4 643.4"><defs><style>.cls-1{fill:url(#linear-gradient);}.cls-2{isolation:isolate;}.cls-24,.cls-3{opacity:0.8;}.cls-3{fill:url(#linear-gradient-2);}.cls-4{fill:url(#linear-gradient-3);}.cls-5{fill:url(#linear-gradient-4);}.cls-6{fill:url(#linear-gradient-5);}.cls-7{fill:url(#linear-gradient-6);}.cls-8{fill:url(#linear-gradient-7);}.cls-9{fill:url(#linear-gradient-8);}.cls-10{fill:url(#linear-gradient-9);}.cls-11{fill:url(#linear-gradient-10);}.cls-12{fill:url(#linear-gradient-11);}.cls-13,.cls-18{opacity:0.3;}.cls-14{fill:url(#linear-gradient-12);}.cls-15{fill:url(#linear-gradient-13);}.cls-16{mask:url(#mask);}.cls-17,.cls-18,.cls-19,.cls-20,.cls-61{mix-blend-mode:overlay;}.cls-17{fill:url(#linear-gradient-14);}.cls-18{fill:url(#linear-gradient-15);}.cls-19{opacity:0.6;fill:url(#linear-gradient-16);}.cls-20{opacity:0.36;fill:url(#linear-gradient-17);}.cls-21{fill:url(#linear-gradient-18);}.cls-22{fill:url(#linear-gradient-19);}.cls-23{fill:url(#linear-gradient-20);}.cls-24{fill:url(#linear-gradient-21);}.cls-25{opacity:0.7;}.cls-26{fill:url(#linear-gradient-22);}.cls-27{fill:url(#linear-gradient-23);}.cls-28{fill:url(#linear-gradient-24);}.cls-29{fill:url(#linear-gradient-25);}.cls-30{fill:url(#linear-gradient-26);}.cls-31{fill:url(#linear-gradient-27);}.cls-32{fill:url(#linear-gradient-28);}.cls-33{fill:url(#linear-gradient-29);}.cls-34{fill:url(#linear-gradient-30);}.cls-35{fill:url(#linear-gradient-31);}.cls-36{fill:url(#linear-gradient-32);}.cls-37{fill:url(#linear-gradient-33);}.cls-38{fill:url(#linear-gradient-34);}.cls-39{fill:url(#linear-gradient-35);}.cls-40{fill:url(#linear-gradient-36);}.cls-41{fill:url(#linear-gradient-37);}.cls-42{fill:url(#linear-gradient-38);}.cls-43{fill:url(#linear-gradient-39);}.cls-44{opacity:0.25;fill:url(#linear-gradient-40);}.cls-45{fill:url(#linear-gradient-41);}.cls-46{fill:url(#linear-gradient-42);}.cls-47{fill:url(#linear-gradient-43);}.cls-48{fill:url(#linear-gradient-44);}.cls-49{fill:url(#linear-gradient-45);}.cls-50{fill:url(#linear-gradient-46);}.cls-51{fill:url(#linear-gradient-47);}.cls-52{fill:url(#linear-gradient-48);}.cls-53{fill:url(#linear-gradient-49);}.cls-54{fill:url(#linear-gradient-50);}.cls-55{fill:url(#linear-gradient-51);}.cls-56{fill:url(#linear-gradient-52);}.cls-57{fill:url(#linear-gradient-53);}.cls-58{fill:url(#linear-gradient-54);}.cls-59{fill:url(#linear-gradient-55);}.cls-60{fill:url(#linear-gradient-56);}.cls-62{fill:#d9ffeb;}</style><linearGradient id="linear-gradient" x1="-2689.15" y1="168.72" x2="-2504.78" y2="392.99" gradientTransform="matrix(-1, 0, 0, 1, -2241.29, 0)" gradientUnits="userSpaceOnUse"><stop offset="0" stop-color="#fff"/><stop offset="0.01" stop-color="#fbfbfb"/><stop offset="0.3" stop-color="#a3a3a3"/><stop offset="0.55" stop-color="#5d5d5d"/><stop offset="0.76" stop-color="#2b2b2b"/><stop offset="0.91" stop-color="#0c0c0c"/><stop offset="1"/></linearGradient><linearGradient id="linear-gradient-2" x1="-2570.33" y1="544.43" x2="-2670.41" y2="371.08" gradientTransform="matrix(-1, 0, 0, 1, -2241.29, 0)" gradientUnits="userSpaceOnUse"><stop offset="0" stop-color="#094871"/><stop offset="0.18" stop-color="#1a5d87"/><stop offset="0.68" stop-color="#4996c1"/><stop offset="0.92" stop-color="#5bacd8"/></linearGradient><linearGradient id="linear-gradient-3" x1="-2865.7" y1="437.87" x2="-2243.43" y2="437.87" gradientTransform="matrix(-1, 0, 0, 1, -2241.29, 0)" gradientUnits="userSpaceOnUse"><stop offset="0" stop-color="#015360"/><stop offset="0.38" stop-color="#0c527b"/><stop offset="0.44" stop-color="#145191"/><stop offset="1" stop-color="#2580df"/></linearGradient><linearGradient id="linear-gradient-4" x1="-2810.02" y1="434.14" x2="-2367.39" y2="419.64" gradientTransform="matrix(-1, 0, 0, 1, -2241.29, 0)" gradientUnits="userSpaceOnUse"><stop offset="0" stop-color="#145191"/><stop offset="1" stop-color="#2580df"/></linearGradient><linearGradient id="linear-gradient-5" x1="-2620" y1="62.48" x2="-2846.86" y2="436.03" gradientTransform="matrix(-1, 0, 0, 1, -2241.29, 0)" gradientUnits="userSpaceOnUse"><stop offset="0" stop-color="#015360"/><stop offset="0.93" stop-color="#1a63af"/></linearGradient><linearGradient id="linear-gradient-6" x1="-686.26" y1="-610.59" x2="-380.34" y2="-610.59" gradientTransform="matrix(1, 0.58, 0, 1.15, 1007.92, 1253.73)" xlink:href="#linear-gradient-4"/><linearGradient id="linear-gradient-7" x1="-2866.99" y1="416.14" x2="-2481.5" y2="397.38" xlink:href="#linear-gradient-5"/><linearGradient id="linear-gradient-8" x1="-880.39" y1="-610.77" x2="-283.24" y2="-610.77" gradientTransform="matrix(1, 0.58, 0, 1.15, 1007.92, 1253.73)" gradientUnits="userSpaceOnUse"><stop offset="0" stop-color="#1c63ae"/><stop offset="1" stop-color="#29b7eb"/></linearGradient><linearGradient id="linear-gradient-9" x1="-2827.58" y1="447.61" x2="-2366.47" y2="404.97" gradientTransform="matrix(-1, 0, 0, 1, -2241.29, 0)" gradientUnits="userSpaceOnUse"><stop offset="0.35" stop-color="#004a50"/><stop offset="0.96" stop-color="#1a63af"/></linearGradient><linearGradient id="linear-gradient-10" x1="-2456.52" y1="290.89" x2="-2934.12" y2="198.21" gradientTransform="matrix(-1, 0, 0, 1, -2241.29, 0)" xlink:href="#linear-gradient-8"/><linearGradient id="linear-gradient-11" x1="-2865.96" y1="474" x2="-2480.47" y2="455.24" xlink:href="#linear-gradient-5"/><linearGradient id="linear-gradient-12" x1="-2709.39" y1="220.13" x2="-2712.29" y2="233.2" gradientTransform="matrix(-1, 0, 0, 1, -2241.29, 0)" gradientUnits="userSpaceOnUse"><stop offset="0" stop-color="#155394"/><stop offset="1" stop-color="#004537"/></linearGradient><linearGradient id="linear-gradient-13" x1="-2707.28" y1="208.48" x2="-2702.92" y2="256.42" gradientTransform="matrix(-1, 0, 0, 1, -2241.29, 0)" gradientUnits="userSpaceOnUse"><stop offset="0" stop-color="#00729b"/><stop offset="1" stop-color="#006659"/></linearGradient><mask id="mask" x="5.58" y="48.63" width="613.08" height="570.42" maskUnits="userSpaceOnUse"><path class="cls-1" d="M5.59,241a5.26,5.26,0,0,1,2.63-4.56L332.3,49.34a5.3,5.3,0,0,1,5.28,0L612.67,208.17a12,12,0,0,1,6,10.39V426.67a5.24,5.24,0,0,1-2.46,4.43v0l-.16.09,0,0h0L292.31,618.11l0,0c-.12.08-.22.19-.35.27a5.28,5.28,0,0,1-5.27,0L11.58,459.52a12,12,0,0,1-6-10.39Z"/></mask><linearGradient id="linear-gradient-14" x1="-3288.75" y1="333.84" x2="-2021.96" y2="333.84" gradientTransform="matrix(-1, 0, 0, 1, -2241.29, 0)" gradientUnits="userSpaceOnUse"><stop offset="0" stop-color="#22ffeb"/><stop offset="1" stop-color="#32ffeb"/></linearGradient><linearGradient id="linear-gradient-15" x1="-2816.86" y1="142.54" x2="-2123.83" y2="142.54" xlink:href="#linear-gradient-14"/><linearGradient id="linear-gradient-16" x1="-3169.59" y1="332.63" x2="-2271.9" y2="332.63" xlink:href="#linear-gradient-14"/><linearGradient id="linear-gradient-17" x1="-3221.42" y1="416.63" x2="-2153.54" y2="416.63" xlink:href="#linear-gradient-14"/><linearGradient id="linear-gradient-18" x1="7058.83" y1="506.66" x2="7058.63" y2="522.83" gradientTransform="translate(-6859.36)" gradientUnits="userSpaceOnUse"><stop offset="0" stop-color="#075170"/><stop offset="1" stop-color="#004536"/></linearGradient><linearGradient id="linear-gradient-19" x1="-39.83" y1="551.89" x2="-37.12" y2="505.04" gradientTransform="matrix(-1, 0, 0, 1, 156.62, 0)" gradientUnits="userSpaceOnUse"><stop offset="0" stop-color="#d5ff4c"/><stop offset="1" stop-color="#d1d33f"/></linearGradient><linearGradient id="linear-gradient-20" x1="-64.77" y1="510.51" x2="-24.83" y2="482.89" gradientTransform="matrix(-1, 0, 0, 1, 156.62, 0)" gradientUnits="userSpaceOnUse"><stop offset="0" stop-color="#23ffb8"/><stop offset="1" stop-color="#16d9a6"/></linearGradient><linearGradient id="linear-gradient-21" x1="-2401.22" y1="541.81" x2="-2413.74" y2="520.11" gradientTransform="matrix(-1, 0, 0, 1, -2241.29, 0)" gradientUnits="userSpaceOnUse"><stop offset="0" stop-color="#094871"/><stop offset="0.15" stop-color="#1a5d87"/><stop offset="0.57" stop-color="#4996c1"/><stop offset="0.77" stop-color="#5bacd8"/></linearGradient><linearGradient id="linear-gradient-22" x1="-2431.23" y1="512.99" x2="-2396.27" y2="532.7" gradientTransform="matrix(-1, 0, 0, 1, -2241.29, 0)" gradientUnits="userSpaceOnUse"><stop offset="0" stop-color="#247edc"/><stop offset="1" stop-color="#004537"/></linearGradient><linearGradient id="linear-gradient-23" x1="-2387.61" y1="511.53" x2="-2426.42" y2="486.51" xlink:href="#linear-gradient-22"/><linearGradient id="linear-gradient-24" x1="-2335.17" y1="499.98" x2="-2418.29" y2="526.27" xlink:href="#linear-gradient-22"/><linearGradient id="linear-gradient-25" x1="-2386.89" y1="510.56" x2="-2419.52" y2="491.72" gradientTransform="matrix(-1, 0, 0, 1, -2241.29, 0)" gradientUnits="userSpaceOnUse"><stop offset="0" stop-color="#004a79"/><stop offset="1" stop-color="#00433c"/></linearGradient><linearGradient id="linear-gradient-26" x1="7136.57" y1="-538.42" x2="7136.38" y2="-522.25" gradientTransform="translate(-6935.53 225.58) rotate(6.62)" xlink:href="#linear-gradient-18"/><linearGradient id="linear-gradient-27" x1="-53.67" y1="551.09" x2="-50.96" y2="504.24" xlink:href="#linear-gradient-19"/><linearGradient id="linear-gradient-28" x1="-62.23" y1="496.35" x2="13.85" y2="496.35" xlink:href="#linear-gradient-20"/><linearGradient id="linear-gradient-29" x1="-9.82" y1="418.1" x2="2.17" y2="418.1" xlink:href="#linear-gradient-19"/><linearGradient id="linear-gradient-30" x1="6623.56" y1="1520.48" x2="6660.24" y2="1468.81" gradientTransform="translate(-6600.88 1160.04) rotate(-19.01)" xlink:href="#linear-gradient-19"/><linearGradient id="linear-gradient-31" x1="6629.08" y1="1488.92" x2="6657.47" y2="1488.92" gradientTransform="translate(-6600.88 1160.04) rotate(-19.01)" gradientUnits="userSpaceOnUse"><stop offset="0.01" stop-color="#603634"/><stop offset="1" stop-color="#11362d"/></linearGradient><linearGradient id="linear-gradient-32" x1="36.21" y1="472.13" x2="-27.05" y2="448.23" gradientTransform="matrix(-1, 0, 0, 1, 156.62, 0)" gradientUnits="userSpaceOnUse"><stop offset="0.01" stop-color="#14b6e4"/><stop offset="1" stop-color="#005461"/></linearGradient><linearGradient id="linear-gradient-33" x1="40.89" y1="469.37" x2="-25.68" y2="444.22" xlink:href="#linear-gradient-32"/><linearGradient id="linear-gradient-34" x1="-552.82" y1="431.13" x2="-607.57" y2="480.46" gradientTransform="translate(766.16)" xlink:href="#linear-gradient-19"/><linearGradient id="linear-gradient-35" x1="-626.92" y1="793.15" x2="-681.59" y2="842.41" gradientTransform="translate(161.98 -584.53) rotate(-40.71)" xlink:href="#linear-gradient-19"/><linearGradient id="linear-gradient-36" x1="-405.03" y1="505.58" x2="-634.34" y2="418.95" gradientTransform="translate(766.16)" xlink:href="#linear-gradient-20"/><linearGradient id="linear-gradient-37" x1="-409.65" y1="517.82" x2="-638.96" y2="431.19" gradientTransform="translate(766.16)" xlink:href="#linear-gradient-20"/><linearGradient id="linear-gradient-38" x1="132.27" y1="152.4" x2="143.8" y2="188.68" gradientTransform="matrix(-0.99, 0.11, 0.11, 0.99, 285.46, 274.6)" xlink:href="#linear-gradient-32"/><linearGradient id="linear-gradient-39" x1="-1319.84" y1="207.51" x2="-1403.5" y2="280.99" gradientTransform="translate(1741.28)" gradientUnits="userSpaceOnUse"><stop offset="0" stop-color="#22ffeb"/><stop offset="1" stop-color="#9dffeb"/></linearGradient><linearGradient id="linear-gradient-40" x1="756.28" y1="4616.18" x2="780.03" y2="4660.39" gradientTransform="matrix(0.09, -1, -0.94, -0.67, 4685.63, 4253.97)" xlink:href="#linear-gradient-18"/><linearGradient id="linear-gradient-41" x1="-1364.58" y1="405.67" x2="-1336.78" y2="367.02" gradientTransform="translate(1741.28)" gradientUnits="userSpaceOnUse"><stop offset="0" stop-color="#8f4aaa"/><stop offset="1" stop-color="#3f4e65"/></linearGradient><linearGradient id="linear-gradient-42" x1="-1338.56" y1="422.52" x2="-1332.75" y2="393.47" xlink:href="#linear-gradient-41"/><linearGradient id="linear-gradient-43" x1="6687.98" y1="418.32" x2="6686.46" y2="371.7" gradientTransform="matrix(-1, 0, 0, 1, 7093.19, 0)" gradientUnits="userSpaceOnUse"><stop offset="0" stop-color="#d7ff53"/><stop offset="0.54" stop-color="#d2e43e"/><stop offset="1" stop-color="#d0ab40"/></linearGradient><linearGradient id="linear-gradient-44" x1="6706.84" y1="417.71" x2="6705.33" y2="371.09" xlink:href="#linear-gradient-43"/><linearGradient id="linear-gradient-45" x1="6726.65" y1="332.68" x2="6686.88" y2="347.92" gradientTransform="matrix(-1, 0, 0, 1, 7093.19, 0)" xlink:href="#linear-gradient-18"/><linearGradient id="linear-gradient-46" x1="6705.35" y1="349.37" x2="6664" y2="347.19" gradientTransform="matrix(-1, 0, 0, 1, 7093.19, 0)" xlink:href="#linear-gradient-18"/><linearGradient id="linear-gradient-47" x1="-1332.79" y1="234.65" x2="-1370.5" y2="302.11" gradientTransform="translate(1741.28)" xlink:href="#linear-gradient-43"/><linearGradient id="linear-gradient-48" x1="-256.44" y1="148.85" x2="-485.17" y2="451.58" gradientTransform="translate(730.8)" xlink:href="#linear-gradient-39"/><linearGradient id="linear-gradient-49" x1="-339.79" y1="187.24" x2="-337.76" y2="226.33" gradientTransform="translate(730.8)" gradientUnits="userSpaceOnUse"><stop offset="0.31" stop-color="#c2bd3a"/><stop offset="1" stop-color="#8b362f"/></linearGradient><linearGradient id="linear-gradient-50" x1="6772.74" y1="208.16" x2="6634.43" y2="329.64" gradientTransform="matrix(-1, 0, 0, 1, 7093.19, 0)" xlink:href="#linear-gradient-39"/><linearGradient id="linear-gradient-51" x1="6645.55" y1="474.56" x2="6603.91" y2="511.14" gradientTransform="matrix(-1, -0.05, -0.05, 1, 7030.65, 144.63)" xlink:href="#linear-gradient-49"/><linearGradient id="linear-gradient-52" x1="-1338.76" y1="265.75" x2="-1328.72" y2="246.04" xlink:href="#linear-gradient-39"/><linearGradient id="linear-gradient-53" x1="-226.66" y1="1356.71" x2="-270.08" y2="1394.85" gradientTransform="translate(1328.64 -765.57) rotate(33.84)" xlink:href="#linear-gradient-49"/><linearGradient id="linear-gradient-54" x1="3847.09" y1="-1286.86" x2="3833.83" y2="-1276.42" gradientTransform="matrix(-0.85, 0.53, 0.53, 0.85, 4323.65, -748.16)" xlink:href="#linear-gradient-49"/><linearGradient id="linear-gradient-55" x1="3731.03" y1="414.36" x2="3758.53" y2="414.36" gradientTransform="matrix(-1, 0.03, 0.03, 1, 4126.32, -310.57)" xlink:href="#linear-gradient-31"/><linearGradient id="linear-gradient-56" x1="3846.51" y1="-1287.6" x2="3833.25" y2="-1277.15" gradientTransform="matrix(-0.85, 0.53, 0.53, 0.85, 4323.65, -748.16)" xlink:href="#linear-gradient-49"/></defs><title>elm</title><g class="cls-2"><g id="Layer_1" data-name="Layer 1"><path class="cls-3" d="M328.6,310.5a13.63,13.63,0,0,1,6.82,1.83L635,485.43a6,6,0,0,1,0,10.39L430.06,614.14a13.64,13.64,0,0,1-13.65,0L116.83,441a6,6,0,0,1,0-10.38l205-118.32A13.6,13.6,0,0,1,328.6,310.5Z"/><path class="cls-4" d="M121.49,401.08v3.82L317.81,291.55a13.25,13.25,0,0,1,13.23,0L612.49,454.19h11.92v10.29a5.81,5.81,0,0,1-2.91,5L422.79,584.19a13.23,13.23,0,0,1-13.22,0L119.1,416.34a5.8,5.8,0,0,1-2.9-5V401.08Z"/><path class="cls-5" d="M119.1,396.05a5.8,5.8,0,0,0,0,10.06L409.57,574a13.2,13.2,0,0,0,13.22,0L621.51,459.23a5.82,5.82,0,0,0,0-10.07L331,281.32a13.25,13.25,0,0,0-13.23,0Z"/><path class="cls-6" d="M327.5,38.39l3.31-1.92v226.7a13.24,13.24,0,0,0,6.61,11.46L619,437.06l6,10.32,8.91-5.14a5.81,5.81,0,0,0,2.86-5V207.78a13.21,13.21,0,0,0-6.61-11.45L339.53,28.69a5.78,5.78,0,0,0-5.8,0l-8.87,5.12Z"/><path class="cls-7" d="M627.58,442.51a5.82,5.82,0,0,1-8.72,5L328.28,279.9a13.22,13.22,0,0,1-6.61-11.45V39a5.82,5.82,0,0,1,8.72-5L621,201.6a13.25,13.25,0,0,1,6.62,11.46Z"/><path class="cls-8" d="M220.45,349.51a5.35,5.35,0,0,0,0,9.27L487.92,513.33a12.14,12.14,0,0,0,12.17,0l90.15-52a5.35,5.35,0,0,0,0-9.27L322.77,297.5a12.16,12.16,0,0,0-12.17,0Z"/><path class="cls-9" d="M618.66,426.67a5.28,5.28,0,0,1-7.91,4.57L335.66,272.41a12,12,0,0,1-6-10.39V53.9a5.27,5.27,0,0,1,7.91-4.56L612.67,208.17a12,12,0,0,1,6,10.39Z"/><path class="cls-10" d="M331.15,281.78,621.62,449.62a4.12,4.12,0,0,1,2,3.56c0,2-1.75,3.84-3,4.57L421.94,572.47a11.48,11.48,0,0,1-11.52,0L120,404.63c-1.27-.73-3.29-2.85-3.29-4.31a4.11,4.11,0,0,1,2-3.56L317.42,282a14.37,14.37,0,0,1,6.37-2A14.63,14.63,0,0,1,331.15,281.78Zm-13.34-.46L119.1,396.05a5.8,5.8,0,0,0,0,10.06L409.57,574a13.23,13.23,0,0,0,13.22,0L621.51,459.23a5.82,5.82,0,0,0,0-10.07L331,281.32a13.25,13.25,0,0,0-13.23,0Z"/><path class="cls-11" d="M324.58,34a5.8,5.8,0,0,1,5.81,0L621,201.6a13.25,13.25,0,0,1,6.62,11.46V442.51a5.79,5.79,0,0,1-2.74,4.92s1-.53,1-4.92V213.06a11.57,11.57,0,0,0-5.76-10L329.54,35.44C325.78,33.57,324,34.29,324.58,34Z"/><path class="cls-12" d="M236.38,448.48a3.34,3.34,0,0,0,0,5.79l80.64,47a7.59,7.59,0,0,0,7.64,0L381,468.77a3.38,3.38,0,0,0,1.68-2.89,3.33,3.33,0,0,0-1.67-2.9l-80.64-47a7.61,7.61,0,0,0-7.64,0Z"/><g class="cls-13"><path class="cls-14" d="M512.74,293.16v-77c0-2.51-2.54-5.68-4.86-6.06l-85.05-11.74a1.68,1.68,0,0,0-1.87.72,45.75,45.75,0,0,0-2.09,4.87l85.18,91.45,4.95.44a5.28,5.28,0,0,0,2.49-.44A2.42,2.42,0,0,0,512.74,293.16Z"/><path class="cls-15" d="M506,293.45v-73.4c0-2.39-2.43-5.42-4.63-5.78l-80.7-11a1.61,1.61,0,0,0-1.78.69c-.72,1.19-.12,3.63,1.78,5.51l80.69,84.42C503.55,296.06,506,295.84,506,293.45Z"/></g><g class="cls-16"><path class="cls-17" d="M5.59,241a5.26,5.26,0,0,1,2.63-4.56L332.3,49.34a5.3,5.3,0,0,1,5.28,0L612.67,208.17a12,12,0,0,1,6,10.39V426.67a5.24,5.24,0,0,1-2.46,4.43v0l-.16.09,0,0h0L292.31,618.11l0,0c-.12.08-.22.19-.35.27a5.28,5.28,0,0,1-5.27,0L11.58,459.52a12,12,0,0,1-6-10.39Z"/><path class="cls-18" d="M15.05,232.5,332.3,49.34a5.3,5.3,0,0,1,5.28,0l3.41,2a5.28,5.28,0,0,0-5.27,0L15.05,236.44Z"/><path class="cls-19" d="M614.6,212.18a7.77,7.77,0,0,1,1.68-.8,11.61,11.61,0,0,1,1.58,2.85L202.25,453.87v-3.94Z"/><path class="cls-20" d="M617.83,214.21a11.81,11.81,0,0,1,.83,4.35V426.67a5.24,5.24,0,0,1-2.46,4.43v0l-.16.09,0,0h0L292.31,618.11l0,0c-.12.08-.22.19-.35.27a5.28,5.28,0,0,1-5.27,0L101.84,511.63Z"/></g><path class="cls-21" d="M191.18,517.78s-.84,2.8-1.1,3.84a12.54,12.54,0,0,0,.44,3.6,2.2,2.2,0,0,0,1.64,1.68,5.4,5.4,0,0,0,4.3-.77l11.5-7.77a1.44,1.44,0,0,0,.46-1.87l-.31-.58a2.25,2.25,0,0,0-2.55-1.13c-2.6.65-7.43,1.76-9.15,1.31C194,515.48,191.18,517.78,191.18,517.78Z"/><path class="cls-22" d="M190.82,510.77s0,8.22.35,9.38,4.06,1.11,5.06-1.37c.85-2.09,1.32-8.93,1.32-8.93Z"/><path class="cls-23" d="M197.55,515.36A8.69,8.69,0,0,1,190,516s0-20.43.78-26-29.56,9.25-29.56,9.25l-7.76-26.45s38.64-12.56,45.82-7.94C207.07,469.89,203.32,494.82,197.55,515.36Z"/><polygon class="cls-24" points="141.32 530.95 141.29 531.01 166.14 545.39 191.03 531.11 191.02 530.83 166.3 516.57 165.97 516.57 141.33 530.83 141.32 530.95"/><g class="cls-25"><polygon class="cls-26" points="166.74 540.03 166.74 512.32 190.78 498.45 190.98 498.38 190.98 525.96 190.82 526.23 166.92 540.03 166.74 540.03"/><polygon class="cls-27" points="142.67 498.35 142.64 498.4 166.7 512.33 190.81 498.5 190.79 498.23 166.86 484.42 166.54 484.42 142.68 498.23 142.67 498.35"/><polygon class="cls-28" points="166.74 512.32 166.74 540.03 166.57 540.03 142.67 526.23 142.51 525.96 142.51 498.33 142.59 498.33 142.63 498.4 166.74 512.32"/><path class="cls-29" d="M190.61,498.37,166.7,512.09l-23.76-13.76,23.76-13.76Zm-48.1,0,24.19,14L191,498.41s0,0,0,0a.05.05,0,0,0,0,0l-24.26-14Z"/></g><path class="cls-30" d="M205.79,523.7s-1.16,2.69-1.53,3.69a12.46,12.46,0,0,0,0,3.63,2.22,2.22,0,0,0,1.44,1.86,5.44,5.44,0,0,0,4.36-.28l12.32-6.39a1.45,1.45,0,0,0,.68-1.8l-.25-.61a2.24,2.24,0,0,0-2.4-1.42c-2.66.35-7.59.89-9.24.25C208.88,521.74,205.79,523.7,205.79,523.7Z"/><path class="cls-31" d="M205,516.28s0,8.23.35,9.38,4.06,1.12,5.06-1.36c.85-2.1,1.32-8.94,1.32-8.94Z"/><path class="cls-32" d="M212.86,520s-4.33,2.69-8.73.88c0,0,1.25-28.93.6-31.76s-3.14-2.18-7.18,0c-3.05,1.63-22.23,14.31-31.29,15.1s-19.79-6.78-21.45-11.22-2-15.85-2-15.85l32.73,3.09s31.41-12.47,38.15-8.14C224.69,479.21,215.08,513.9,212.86,520Z"/><path class="cls-33" d="M166.44,417.92l-1.67,8.13c-.16.86-.54,0-1.42,0a34.1,34.1,0,0,1-7.76-.84c-1.17-.29-1.84-1.52.06-6.39l2.56-9.06Z"/><path class="cls-34" d="M173.87,399.23s2,12.88.67,16.28-9.38,5-11.46,3.95-8.19-8-8.51-11.12S167.39,393.33,173.87,399.23Z"/><path class="cls-35" d="M155.83,394.59c-1.49,1.22-2.11,4.84-5.05,6.34-2.06,1.06-.49,4.28,2.12,10s6.15,5.93,8.46,6,3.73-5.89,5-9,2.71-5,6.53-5.86,6.68-4.94,3.33-6.57-4.82-.15-7.33-.76S161.55,389.93,155.83,394.59Z"/><path class="cls-36" d="M173.39,450.53a46.17,46.17,0,0,0,.62-11.81c-2-8.65-2.83-7.79-2.83-7.79-5.79-6.58-13.35-7-19.63-8.57-13.13,4.62-9.7,30.69-9.89,42.9s-1.68,12.83,1.11,17.27c3.78,6,16.45,11.42,22.92,10s8.7-2.29,9.44-7.65a13.09,13.09,0,0,1,2.54-5.45C176,474.26,171.35,461.12,173.39,450.53Z"/><path class="cls-37" d="M169.34,430.25s2.58-.68,5.2,6.13,4.06,17,4.06,17l-.93,12s-7.24-1.17-10.16-6.47S160,428.87,169.34,430.25Z"/><path class="cls-38" d="M195.87,450.53c-.63-.1-6.77,3.81-11,4.37s-6.24-1.48-6.24-1.48-4.48,4.17-4,9.9,16.9-1.22,23.35-9.92Z"/><path class="cls-39" d="M195.28,452.12s.06-6.27,2.44-8.56a13.67,13.67,0,0,1,8.54-3.21c2.1,0,1.35,3.84.31,5.47s-7.43,5-8.5,7.32S195.28,452.12,195.28,452.12Z"/><path class="cls-40" d="M172.71,432.68a9.28,9.28,0,0,0-.89-1.14c-.44-.81-.64-.61-.64-.61h0c-5.79-6.58-12.15-10.26-19.63-8.57-3.6,1.26-6,4.15-7.47,7.91C149.88,433.08,163.79,437.82,172.71,432.68Z"/><path class="cls-41" d="M176.64,443.31c-.39-1.59-.84-3.22-1.34-4.76-14.92,7.68-28.33,2-33.18-.64a76.49,76.49,0,0,0-.71,9.45C147,449.62,163.17,454.64,176.64,443.31Z"/><path class="cls-42" d="M171.3,463.13a.27.27,0,0,0,.23,0,.3.3,0,0,0,.19-.14l.13-.22a.29.29,0,0,0-.09-.39A9.62,9.62,0,0,1,169,459.8c-1.63-2.33-4.55-10.71-4.45-16.39a.41.41,0,0,0-.39-.42h-.06a.38.38,0,0,0-.39.37c-.12,5.84,2.91,14.51,4.6,16.93A10.42,10.42,0,0,0,171.3,463.13Z"/><path class="cls-43" d="M380.57,235s-7.6,15.82-26.14,15.27l-1.5,4.1a6.49,6.49,0,0,0,2.91,7.88c4.57,2.61,12.33,4.91,22.1-.4Z"/><ellipse class="cls-44" cx="396.63" cy="403.15" rx="13.41" ry="36.93" transform="translate(-135.25 595.39) rotate(-65.34)"/><path class="cls-45" d="M390.1,386.81a7.75,7.75,0,0,1,2,3.1c.5,1.74,1,3.48-1,3.85a8.9,8.9,0,0,0-5.09,3.72c-1.24,1.74-4.17,2.27-7.31,2.36-2.55.07-2.61-1.74-2.36-2.61s3-3.1,5-4.71,4.59-5.71,4.59-5.71Z"/><path class="cls-46" d="M408.25,400.75l1.31,3.21a5.79,5.79,0,0,1,.33,3.39,29.06,29.06,0,0,1-1.64,5.81c-1,1.86-5,2.21-6.45,1.6s-.85-4.29,0-8.18c.39-1.79,1.86-5.83,1.86-5.83Z"/><path class="cls-47" d="M408.22,401.52l.6-7.27h-5.64l.79,7.67S406.44,403.58,408.22,401.52Z"/><path class="cls-48" d="M390.12,388.17l.69-9.2-6.43.6,1.48,8.6S386.66,389.26,390.12,388.17Z"/><path class="cls-49" d="M376.1,296s.48,60.49,8.07,86.24c0,0,2.14,1.57,7.23-.9,0,0,3.43-50.79,5-56.59s.87-23.16.87-23.16Z"/><path class="cls-50" d="M410.66,304.38s1.52,54.81,1.91,59.75-3.17,30.81-3.17,30.81a6.48,6.48,0,0,1-6.72.26s-6.93-40.2-8.21-48.5-7.7-44.89-7.7-44.89Z"/><path class="cls-51" d="M404.38,236.17c-1.68-1.25-7-4.27-9.71-4.72-3.24-.54-7.56,1.14-10.5,1.54-2.74,2.36-6.14,8.33-5.33,23.45,1,18.79-1.86,39.19-1.92,51.26,3,.57,13.28,4.23,16.34.64.51-14.21-1.1-41.76.7-54.95C395.43,242.64,401.71,238.39,404.38,236.17Z"/><path class="cls-52" d="M378.84,256.44c-.81-15.12,2.59-21.09,5.33-23.45-5.11.69-7.94,9.13-8.83,13.43-1.4,6.77-1.22,67.58-1.22,67.58l1.94.35a3.23,3.23,0,0,0,3.7-3.31C379.81,297.59,379.74,273.38,378.84,256.44Z"/><path class="cls-53" d="M396.34,218.15l3,15.7a2.53,2.53,0,0,1-1.41,2.77c-1.95.92-5.26,2-8.56.62a3,3,0,0,1-1.85-3l1-10.16Z"/><path class="cls-54" d="M394,253.13c1.47-10.81,7.75-14.73,10.42-17a10.59,10.59,0,0,1,4.71,3.74,28.9,28.9,0,0,1,4.24,9.11c3.32,8.25,6.67,20.18,2.21,27.34-.16,15.05-1.34,33.77-4.16,43.12,0,0-2.76.85-3.75-6.81,0,0-.39,9-7.88,6.84-1.78-.51-4.16-1.09-6.76-1.66a3.6,3.6,0,0,1-2.68-3.71C390.91,298.24,392.28,265.53,394,253.13Z"/><path class="cls-55" d="M387.73,280.09c2.5-.67,12.58-8.18,16.45-11.12a3.14,3.14,0,0,1,3.82,0,6.08,6.08,0,0,1,2.24,4.78,3.86,3.86,0,0,1-2.6,3.75l-16.13,5.57s-3.62,7.87-9.18,8.66-5.89-5.2-6.22-7.27S384.62,280.92,387.73,280.09Z"/><path class="cls-56" d="M406.11,267.35a.45.45,0,0,0,.42-.27c2.53-5.44-1.11-13.86-1.27-14.22a.46.46,0,0,0-.62-.24.48.48,0,0,0-.24.62c0,.08,3.63,8.39,1.29,13.44a.46.46,0,0,0,.42.67Z"/><path class="cls-57" d="M361.58,254.84a2.41,2.41,0,0,0-.49-2.42c-2.58-2.91-10-11.5-11-15.35-1.26-4.67.41-7.15.94-9.53s-1.74-1.46-2.33.78-2.52-1-2.93-2-2.1-6.11-4.17-6.63-4.8,4-1.06,12.4c0,0,3.47,3.84,4.54,7.45a160.59,160.59,0,0,0,7.79,18.53,3.34,3.34,0,0,0,4.51,1.49A8.41,8.41,0,0,0,361.58,254.84Z"/><path class="cls-58" d="M383.3,213.44s-1.49,10.55.44,15.11,4.94,2.42,8,1.31,8.2-9.08,8.2-9.08S393.34,201.74,383.3,213.44Z"/><path class="cls-59" d="M382.46,208.63A1.06,1.06,0,0,1,382,210l-.15.43a2.79,2.79,0,0,0,.55,2.79l.52.58a2.27,2.27,0,0,1,3.2.7c1.47,2,5.51,1.39,10.32,2.29,1.78.33,1.55,3,1.13,5.63-.46,3,1.34,2.24,1.82,1.27a24.51,24.51,0,0,1,3.37-5.15,3.32,3.32,0,0,1,1.93-.65,1.07,1.07,0,0,0,.91-1.49l-.57-1.32,2.56-1.33a2.19,2.19,0,0,0-.38-4l-1.92-.59a1.06,1.06,0,0,1-.75-1.11l.15-1.84a2.43,2.43,0,0,0-3.48-2.38l-.31.15a1.08,1.08,0,0,1-1.54-.93,1.06,1.06,0,0,0-1.61-.89l-.48.28a1.07,1.07,0,0,1-1.59-.71l-.19-.94a1.07,1.07,0,0,0-2.06-.13l-.12.35a1.07,1.07,0,0,1-1.89.28l-.27-.38a1.06,1.06,0,0,0-1.94.6v.22a1.06,1.06,0,0,1-1.63.9l-.8-.5a1.07,1.07,0,0,0-1.6,1.18l.09.36a1.07,1.07,0,0,1-1.44,1.26l-1.28-.52a1.07,1.07,0,0,0-1.38,1.42Z"/><path class="cls-60" d="M395.49,219.51s3.9-2.9,4.65-.67-3.56,4.2-3.56,4.2Z"/><g class="cls-61"><polygon class="cls-62" points="577.32 322.02 584.01 325.88 584.01 297.23 577.32 293.37 577.32 322.02"/><polygon class="cls-62" points="567.58 316.39 574.26 320.25 574.26 282.59 567.58 278.73 567.58 316.39"/><polygon class="cls-62" points="557.84 310.77 564.52 314.63 564.52 283.82 557.84 279.96 557.84 310.77"/><polygon class="cls-62" points="548.09 305.14 554.78 309 554.78 269.57 548.09 265.71 548.09 305.14"/><polygon class="cls-62" points="538.35 299.52 545.03 303.38 545.03 289.28 538.35 285.43 538.35 299.52"/><polygon class="cls-62" points="309.99 210.76 317.98 215.38 317.98 189.96 309.99 185.35 309.99 210.76"/><polygon class="cls-62" points="298.35 204.04 306.33 208.65 306.33 172.46 298.35 167.85 298.35 204.04"/><polygon class="cls-62" points="286.7 197.32 294.69 201.93 294.69 182.75 286.7 178.13 286.7 197.32"/><polygon class="cls-62" points="275.06 190.6 283.05 195.21 283.05 165.71 275.06 161.1 275.06 190.6"/><polygon class="cls-62" points="263.42 183.87 271.4 188.49 271.4 145.2 263.42 140.59 263.42 183.87"/><path class="cls-62" d="M462.82,350.83a1.25,1.25,0,0,0-.63,2.33l10.35,6a1.25,1.25,0,0,0,1.25-2.17l-10.35-6A1.16,1.16,0,0,0,462.82,350.83Z"/><path class="cls-62" d="M479.26,360.32a1.25,1.25,0,0,0-.62,2.34l29.76,17.19a1.25,1.25,0,0,0,1.25-2.17l-29.76-17.19A1.29,1.29,0,0,0,479.26,360.32Z"/><path class="cls-62" d="M462.82,341.29a1.25,1.25,0,0,0-.63,2.34L485.35,357a1.25,1.25,0,0,0,1.25-2.17l-23.16-13.37A1.16,1.16,0,0,0,462.82,341.29Z"/><path class="cls-62" d="M492.08,358.18a1.25,1.25,0,0,0-.63,2.34l24.69,14.25a1.25,1.25,0,0,0,1.25-2.17L492.7,358.35A1.26,1.26,0,0,0,492.08,358.18Z"/><path class="cls-62" d="M462.82,325a1.25,1.25,0,0,0-.63,2.34l10.35,6a1.25,1.25,0,0,0,1.25-2.17l-10.35-6A1.26,1.26,0,0,0,462.82,325Z"/><path class="cls-62" d="M479.26,334.47a1.25,1.25,0,0,0-.62,2.33L508.4,354a1.25,1.25,0,1,0,1.25-2.17l-29.76-17.18A1.19,1.19,0,0,0,479.26,334.47Z"/><path class="cls-62" d="M462.82,315.43a1.25,1.25,0,0,0-.63,2.34l23.16,13.37A1.25,1.25,0,0,0,486.6,329L463.44,315.6A1.26,1.26,0,0,0,462.82,315.43Z"/><path class="cls-62" d="M492.08,332.33a1.25,1.25,0,0,0-.63,2.33l24.69,14.26a1.25,1.25,0,1,0,1.25-2.17L492.7,332.5A1.16,1.16,0,0,0,492.08,332.33Z"/><path class="cls-62" d="M462.82,366.85a1.25,1.25,0,0,0-.63,2.33l13.91,8a1.25,1.25,0,0,0,1.26-2.17l-13.92-8A1.16,1.16,0,0,0,462.82,366.85Z"/><path class="cls-62" d="M508.48,393.21a1.25,1.25,0,0,0-.62,2.34l8.43,4.87a1.25,1.25,0,0,0,1.25-2.17l-8.43-4.87A1.29,1.29,0,0,0,508.48,393.21Z"/><path class="cls-62" d="M482.83,378.4a1.28,1.28,0,0,0-1.09.63,1.26,1.26,0,0,0,.46,1.71l19.88,11.47a1.25,1.25,0,1,0,1.25-2.16l-19.88-11.48A1.26,1.26,0,0,0,482.83,378.4Z"/><path class="cls-62" d="M462.82,376.39a1.25,1.25,0,0,0-.63,2.33l18.57,10.72a1.25,1.25,0,1,0,1.25-2.16l-18.57-10.73A1.25,1.25,0,0,0,462.82,376.39Z"/><path class="cls-62" d="M487.49,390.63a1.25,1.25,0,0,0-1.09.63,1.26,1.26,0,0,0,.46,1.71l19.91,11.49a1.25,1.25,0,0,0,1.25-2.17L488.11,390.8A1.16,1.16,0,0,0,487.49,390.63Z"/><path class="cls-62" d="M330.54,141.06a1.91,1.91,0,0,1-1.66-1.42,45,45,0,0,1-1.55-11.29c0-16.58,11.3-23.61,25.54-16.33a1.9,1.9,0,0,1,1,1.7v29a.68.68,0,0,1-.21.48.66.66,0,0,1-.5.16Z"/><path class="cls-62" d="M357.9,115.45a.8.8,0,0,1,1.24-.67c14.15,9.22,25.34,29.19,25.34,45.69,0,7.73-2.45,13.38-6.52,16.48a1.08,1.08,0,0,1-1.59-.32l-17.94-31a4,4,0,0,1-.53-2Z"/><path class="cls-62" d="M353.93,147a1.39,1.39,0,0,1,1,.68L373.11,179a.88.88,0,0,1,.07.74.89.89,0,0,1-.5.54c-4.76,2-10.95,1.24-17.72-2.67-10.87-6.27-20.25-19-24.57-32.11a.65.65,0,0,1,.69-.86Z"/><polygon class="cls-62" points="450.91 357.86 435.49 348.95 435.49 366.65 450.91 375.56 450.91 357.86"/><polygon class="cls-62" points="450.91 330.4 435.49 321.49 435.49 339.19 450.91 348.1 450.91 330.4"/><polygon class="cls-62" points="450.91 303.58 435.49 294.68 435.49 312.38 450.91 321.28 450.91 303.58"/><path class="cls-62" d="M354.42,327.51a1.34,1.34,0,0,0,1.16-.67,1.33,1.33,0,0,0-.49-1.82l-11-6.38a1.33,1.33,0,0,0-1.33,2.31l11,6.38A1.35,1.35,0,0,0,354.42,327.51Z"/><path class="cls-62" d="M336.86,317.37a1.33,1.33,0,0,0,.67-2.49l-31.77-18.35a1.34,1.34,0,1,0-1.34,2.32L336.2,317.2A1.33,1.33,0,0,0,336.86,317.37Z"/><path class="cls-62" d="M298.85,295.43a1.34,1.34,0,0,0,.67-2.5l-19.3-11.14a1.34,1.34,0,0,0-1.33,2.32l19.29,11.14A1.35,1.35,0,0,0,298.85,295.43Z"/><path class="cls-62" d="M354.42,337.69a1.35,1.35,0,0,0,1.16-.66,1.34,1.34,0,0,0-.49-1.83l-24.73-14.28a1.34,1.34,0,0,0-1.33,2.32l24.72,14.28A1.34,1.34,0,0,0,354.42,337.69Z"/><path class="cls-62" d="M323.18,319.66a1.32,1.32,0,0,0,1.16-.67,1.34,1.34,0,0,0-.49-1.83L297.5,302a1.34,1.34,0,1,0-1.34,2.32l26.36,15.21A1.34,1.34,0,0,0,323.18,319.66Z"/><path class="cls-62" d="M290.59,300.84a1.33,1.33,0,0,0,.67-2.49l-11-6.37a1.33,1.33,0,1,0-1.33,2.31l11,6.37A1.34,1.34,0,0,0,290.59,300.84Z"/><path class="cls-62" d="M354.42,317.33a1.34,1.34,0,0,0,1.16-.67,1.33,1.33,0,0,0-.49-1.82l-14.85-8.58a1.34,1.34,0,0,0-1.34,2.32l14.85,8.57A1.35,1.35,0,0,0,354.42,317.33Z"/><path class="cls-62" d="M305.67,289.18a1.33,1.33,0,0,0,.67-2.49l-9-5.2a1.34,1.34,0,1,0-1.34,2.32l9,5.19A1.35,1.35,0,0,0,305.67,289.18Z"/><path class="cls-62" d="M333.06,305a1.34,1.34,0,0,0,.67-2.5l-21.22-12.25a1.34,1.34,0,1,0-1.34,2.32l21.22,12.25A1.35,1.35,0,0,0,333.06,305Z"/><path class="cls-62" d="M290.43,280.39a1.34,1.34,0,0,0,.67-2.5l-10.88-6.28a1.34,1.34,0,0,0-1.33,2.32l10.88,6.28A1.34,1.34,0,0,0,290.43,280.39Z"/><path class="cls-62" d="M354.42,307.15a1.34,1.34,0,0,0,.67-2.5l-19.83-11.44a1.33,1.33,0,1,0-1.33,2.31L353.75,307A1.35,1.35,0,0,0,354.42,307.15Z"/><path class="cls-62" d="M328.08,291.94a1.33,1.33,0,0,0,.67-2.49L307.5,277.18a1.33,1.33,0,1,0-1.33,2.31l21.25,12.27A1.34,1.34,0,0,0,328.08,291.94Z"/><path class="cls-62" d="M300.59,276.07a1.33,1.33,0,0,0,.67-2.49l-21-12.15a1.34,1.34,0,0,0-1.33,2.32l21,12.14A1.34,1.34,0,0,0,300.59,276.07Z"/><path class="cls-62" d="M594,380.8a1.3,1.3,0,0,0,1.15-.66,1.34,1.34,0,0,0-.49-1.83L562.92,360a1.34,1.34,0,1,0-1.34,2.31l31.78,18.35A1.34,1.34,0,0,0,594,380.8Z"/><path class="cls-62" d="M556,358.86a1.34,1.34,0,0,0,.67-2.5l-19.29-11.14a1.34,1.34,0,1,0-1.34,2.32l19.29,11.14A1.35,1.35,0,0,0,556,358.86Z"/><path class="cls-62" d="M580.35,383.09a1.33,1.33,0,0,0,.67-2.49l-26.36-15.22a1.34,1.34,0,0,0-1.33,2.32l26.35,15.21A1.35,1.35,0,0,0,580.35,383.09Z"/><path class="cls-62" d="M547.76,364.27a1.31,1.31,0,0,0,1.15-.67,1.33,1.33,0,0,0-.49-1.82l-11-6.37a1.34,1.34,0,1,0-1.34,2.31l11,6.37A1.35,1.35,0,0,0,547.76,364.27Z"/><path class="cls-62" d="M562.83,352.61a1.33,1.33,0,0,0,.67-2.49l-9-5.2a1.34,1.34,0,0,0-1.33,2.32l9,5.19A1.22,1.22,0,0,0,562.83,352.61Z"/><path class="cls-62" d="M590.22,368.43a1.34,1.34,0,0,0,.67-2.5l-21.22-12.25a1.34,1.34,0,1,0-1.34,2.32l21.22,12.25A1.35,1.35,0,0,0,590.22,368.43Z"/><path class="cls-62" d="M547.59,343.82a1.32,1.32,0,0,0,1.16-.67,1.34,1.34,0,0,0-.49-1.83L537.39,335a1.34,1.34,0,1,0-1.34,2.32l10.88,6.28A1.34,1.34,0,0,0,547.59,343.82Z"/><path class="cls-62" d="M585.25,355.37a1.31,1.31,0,0,0,1.15-.67,1.34,1.34,0,0,0-.48-1.82l-21.26-12.27a1.33,1.33,0,1,0-1.33,2.31l21.25,12.27A1.35,1.35,0,0,0,585.25,355.37Z"/><path class="cls-62" d="M557.76,339.5a1.31,1.31,0,0,0,1.15-.67,1.33,1.33,0,0,0-.49-1.82l-21-12.15a1.34,1.34,0,1,0-1.34,2.32l21,12.14A1.35,1.35,0,0,0,557.76,339.5Z"/><polygon class="cls-62" points="303.18 245.23 314.98 252.05 314.98 238.5 303.18 231.69 303.18 245.23"/><polygon class="cls-62" points="280.56 232.17 292.37 238.99 292.37 225.44 280.56 218.63 280.56 232.17"/><polygon class="cls-62" points="257.94 219.11 269.75 225.93 269.75 212.38 257.94 205.57 257.94 219.11"/><polygon class="cls-62" points="235.32 206.05 247.13 212.87 247.13 199.32 235.32 192.51 235.32 206.05"/><polygon class="cls-62" points="212.7 193 224.51 199.81 224.51 186.26 212.7 179.45 212.7 193"/><polygon class="cls-62" points="212.7 187.73 314.98 246.78 314.98 243.77 212.7 184.72 212.7 187.73"/><path class="cls-62" d="M254,198.78l19.67,11.36v22.58L254,221.36Zm18.36,12.11L255.32,201v19.57l17.05,9.84Z"/></g></g></g></svg>