<svg id="Layer_1" data-name="Layer 1" xmlns="http://www.w3.org/2000/svg" viewBox="0 0 600 600"><defs><style>.cls-1{fill:#fff;}.cls-2{fill:#094871;}.cls-3{fill:#bad1da;}.cls-4{fill:#86b9e2;}</style></defs><title>icon</title><g id="Group_4235" data-name="Group 4235"><path id="Path_4170" data-name="Path 4170" class="cls-1" d="M492,483.72H107.81L135,525H464.84Z"/><path id="Path_4171" data-name="Path 4171" class="cls-2" d="M464.84,534.36H135a8.4,8.4,0,0,1-7.55-4.7l-27.15-41.24a8.68,8.68,0,0,1,0-9.39,9.66,9.66,0,0,1,8.37-4.69H492.81a9.67,9.67,0,0,1,8.37,4.69,8.68,8.68,0,0,1,0,9.39L474,529.66A12,12,0,0,1,464.84,534.36Zm-325.18-18.8H460.14L475,493.1H125.56Z"/><path id="Path_4172" data-name="Path 4172" class="cls-1" d="M184.56,483.71H415.24l-50.62-60.85H235.18Z"/><path id="Path_4173" data-name="Path 4173" class="cls-2" d="M415.24,493.12H184.56a8.94,8.94,0,0,1-8.38-5.72,10,10,0,0,1,1-10.41l50.63-60.85a11.62,11.62,0,0,1,7.55-3.67H364.81a8.83,8.83,0,0,1,7.56,3.67L423,477a10.38,10.38,0,0,1,1,10.41A8.85,8.85,0,0,1,415.24,493.12Zm-210.88-18.8H395.68l-35.52-42.27H240.09Z"/><path id="Path_4174" data-name="Path 4174" class="cls-1" d="M590.38,56.15a46.45,46.45,0,0,0-45.93-47H56.16A46.46,46.46,0,0,0,9.21,55.13V345.89H590.38Z"/><path id="Path_4175" data-name="Path 4175" class="cls-2" d="M590.39,355.28H9.42A8.79,8.79,0,0,1,0,347.13a8.55,8.55,0,0,1,0-1.24V56.09A56.38,56.38,0,0,1,56.1,0H543.44a56.23,56.23,0,0,1,56.08,56.09v289.8a9.05,9.05,0,0,1-8.7,9.39C590.68,355.28,590.54,355.29,590.39,355.28ZM18.81,336.55H581.19V56.09a37.73,37.73,0,0,0-37.56-37.57H56.1A37.74,37.74,0,0,0,18.6,56.09Z"/><path id="Path_4176" data-name="Path 4176" class="cls-3" d="M47,308.32V56.15a8.8,8.8,0,0,1,8.16-9.39,8.55,8.55,0,0,1,1.24,0H543.65A8.8,8.8,0,0,1,553,54.91a8.55,8.55,0,0,1,0,1.24V308.32Z"/><path id="Path_4177" data-name="Path 4177" class="cls-1" d="M9.42,345.89v30a46.43,46.43,0,0,0,45.92,47H543.65a46.45,46.45,0,0,0,47-45.93V345.89Z"/><path id="Path_4178" data-name="Path 4178" class="cls-2" d="M543.65,432.26H56.1A56.43,56.43,0,0,1,0,375.9v-30a8.8,8.8,0,0,1,8.15-9.4,8.69,8.69,0,0,1,1.25,0H590.59a8.8,8.8,0,0,1,9.39,8.15,8.69,8.69,0,0,1,0,1.25v30A56.72,56.72,0,0,1,543.65,432.26Zm-524.84-77v20.63a37.73,37.73,0,0,0,37.56,37.57H543.65a37.73,37.73,0,0,0,37.55-37.57V355.28Z"/><rect id="Rectangle_6039" data-name="Rectangle 6039" class="cls-4" x="353.39" y="375.91" width="18.79" height="18.79"/><rect id="Rectangle_6040" data-name="Rectangle 6040" class="cls-4" x="290.51" y="375.91" width="18.79" height="18.79"/><rect id="Rectangle_6041" data-name="Rectangle 6041" class="cls-4" x="227.84" y="375.91" width="18.79" height="18.79"/></g><path class="cls-2" d="M369.31,94.21a54.59,54.59,0,1,0,54.58,54.59A54.58,54.58,0,0,0,369.31,94.21Zm0,93.92a39.33,39.33,0,1,1,39.32-39.33A39.33,39.33,0,0,1,369.31,188.13Z"/><path class="cls-2" d="M369.31,194.86A113.45,113.45,0,0,0,255.87,308.32H482.75A113.45,113.45,0,0,0,369.31,194.86Zm0,14.12c52.41,0,94.89,39.56,94.89,88.35H274.42C274.42,248.54,316.9,209,369.31,209Z"/><ellipse class="cls-1" cx="369.31" cy="148.8" rx="39.32" ry="39.33" transform="translate(-0.29 0.73) rotate(-0.11)"/><path class="cls-4" d="M369.31,209c52.41,0,94.89,39.56,94.89,88.35H274.42C274.42,248.54,316.9,209,369.31,209Z"/><path class="cls-2" d="M207.17,209a99.69,99.69,0,1,0,99.66,99.69A99.68,99.68,0,0,0,207.17,209Zm0,177.77a78.08,78.08,0,1,1,78.06-78.08A78.07,78.07,0,0,1,207.17,386.75Z"/><path class="cls-2" d="M207.17,392.79C92.75,392.79,0,485.56,0,600H414.33C414.33,485.56,321.58,392.79,207.17,392.79Zm0,22.24c99.91,0,180.91,74.26,180.91,165.87H26.25C26.25,489.29,107.25,415,207.17,415Z"/><path class="cls-4" d="M390.64,580.9H23.69c0-93,83.56-168.43,183.48-168.43S390.64,487.88,390.64,580.9Z"/><ellipse class="cls-1" cx="207.17" cy="308.67" rx="78.06" ry="78.08" transform="matrix(1, 0, 0, 1, -0.61, 0.41)"/></svg>