<svg id="Layer_1" data-name="Layer 1" xmlns="http://www.w3.org/2000/svg" viewBox="0 0 600 600"><defs><style>.cls-1{fill:#094871;}.cls-2{fill:#fff;}.cls-3{fill:#bad1da;}.cls-4{fill:#86b9e2;}</style></defs><title>icon</title><path class="cls-1" d="M457.24,577.88l-142.81-82.7V12.67A12.65,12.65,0,0,0,301.8,0h0a12.65,12.65,0,0,0-12.63,12.67V493.1L142.76,577.88a11.88,11.88,0,0,0-4.32,16.19h0a11.8,11.8,0,0,0,16.14,4.34l134.59-77.94v58a12.65,12.65,0,0,0,12.63,12.67h0a12.65,12.65,0,0,0,12.63-12.67V522.55l131,75.86a11.8,11.8,0,0,0,16.14-4.34h0A11.88,11.88,0,0,0,457.24,577.88Z"/><rect class="cls-2" x="54.61" y="70.13" width="489.07" height="336.76"/><rect class="cls-3" x="55.39" y="380.03" width="487.5" height="24.08"/><path class="cls-1" d="M597.72,48.4H0V67.86a2.28,2.28,0,0,0,2.28,2.27H34.13V424.07a2.28,2.28,0,0,0,2.28,2.28h527a2.28,2.28,0,0,0,2.28-2.28V70.13h32A2.28,2.28,0,0,0,600,67.86V50.68A2.28,2.28,0,0,0,597.72,48.4ZM541.4,404.61H58.45V70.13h483Z"/><rect class="cls-4" x="214.5" y="150.31" width="233.97" height="14.9"/><rect class="cls-4" x="214.5" y="228.64" width="233.97" height="14.9"/><rect class="cls-4" x="214.5" y="308.23" width="233.97" height="14.9"/><rect class="cls-4" x="141.22" y="150.31" width="14.9" height="14.9"/><rect class="cls-4" x="141.22" y="228.64" width="14.9" height="14.9"/><rect class="cls-4" x="141.22" y="308.23" width="14.9" height="14.9"/></svg>